<?xml version="1.0" standalone="no"?>
<!DOCTYPE svg PUBLIC "-//W3C//DTD SVG 20010904//EN"
 "http://www.w3.org/TR/2001/REC-SVG-20010904/DTD/svg10.dtd">
<svg version="1.0" xmlns="http://www.w3.org/2000/svg"
 width="512.000000pt" height="512.000000pt" viewBox="0 0 512.000000 512.000000"
 preserveAspectRatio="xMidYMid meet">
<metadata>
Created by potrace 1.14, written by Peter Selinger 2001-2017
</metadata>
<g transform="translate(0.000000,512.000000) scale(0.100000,-0.100000)"
fill="#000000" stroke="none">
<path d="M2384 4675 c-84 -18 -153 -55 -213 -115 -41 -41 -89 -110 -96 -140
-1 -3 -4 -12 -8 -20 -31 -80 -38 -184 -18 -270 8 -30 52 -131 100 -225 83
-163 134 -272 161 -343 13 -33 13 -33 -44 -84 -109 -97 -171 -214 -171 -323 0
-121 61 -207 246 -348 161 -124 430 -248 613 -283 61 -12 129 -38 153 -58 l28
-25 -18 -33 c-26 -48 -137 -115 -298 -178 -200 -79 -369 -126 -729 -201 -277
-58 -689 -158 -819 -198 -36 -11 -67 -19 -69 -17 -5 5 40 98 118 246 70 132
89 189 94 280 12 230 -126 428 -348 500 -54 17 -170 20 -242 5 -251 -53 -417
-318 -364 -582 10 -48 121 -292 151 -329 8 -9 99 -210 119 -261 8 -20 4 -24
-45 -42 -64 -24 -281 -129 -345 -167 -25 -14 -74 -48 -110 -74 -268 -200 -298
-392 -93 -598 99 -100 217 -178 418 -278 l160 -79 1968 0 1968 -1 25 23 c48
44 33 72 -91 165 -364 276 -438 589 -211 886 85 110 187 197 396 337 247 165
344 286 344 425 0 87 -30 147 -113 230 -86 85 -164 137 -326 216 l-133 65 25
57 c76 173 69 158 161 333 79 149 104 234 101 333 -8 219 -155 410 -359 464
-50 13 -166 14 -226 3 -171 -33 -315 -174 -365 -356 -16 -61 -16 -193 1 -255
6 -25 54 -128 106 -229 52 -101 93 -185 91 -187 -2 -2 -28 3 -57 12 -30 9 -61
17 -69 19 -9 2 -43 10 -76 18 -33 9 -71 18 -85 20 -14 3 -72 16 -130 30 -58
14 -118 28 -135 30 -257 44 -316 58 -399 98 -125 59 -201 147 -199 229 1 65
57 146 154 225 66 55 383 225 418 225 5 0 12 4 15 8 9 15 -277 5 -359 -13 -44
-9 -89 -19 -100 -21 -26 -5 -296 -81 -319 -90 -15 -6 -15 -3 -4 22 7 16 44 88
82 159 83 158 95 190 103 280 16 207 -98 394 -283 461 -79 29 -168 36 -250 19z"/>
</g>
</svg>
